<?xml version="1.0" encoding="UTF-8" standalone="no"?>
<svg
   width="45.599998"
   height="120"
   viewBox="0 0 45.599998 120"
   version="1.1"
   id="svg8"
   inkscape:version="1.2 (dc2aedaf03, 2022-05-15)"
   sodipodi:docname="mandibular_b_6.svg"
   xmlns:inkscape="http://www.inkscape.org/namespaces/inkscape"
   xmlns:sodipodi="http://sodipodi.sourceforge.net/DTD/sodipodi-0.dtd"
   xmlns="http://www.w3.org/2000/svg"
   xmlns:svg="http://www.w3.org/2000/svg"
   xmlns:rdf="http://www.w3.org/1999/02/22-rdf-syntax-ns#"
   xmlns:cc="http://creativecommons.org/ns#"
   xmlns:dc="http://purl.org/dc/elements/1.1/">
  <defs
     id="defs2">
    <inkscape:path-effect
       simplify_just_coalesce="false"
       simplify_individual_paths="false"
       helper_size="0"
       smooth_angles="360"
       threshold="0.000851064"
       steps="1"
       lpeversion="1"
       is_visible="true"
       id="path-effect1677"
       effect="simplify" />
    <inkscape:path-effect
       simplify_just_coalesce="false"
       simplify_individual_paths="false"
       helper_size="0"
       smooth_angles="360"
       threshold="0.000851064"
       steps="1"
       lpeversion="1"
       is_visible="true"
       id="path-effect1673"
       effect="simplify" />
    <inkscape:path-effect
       simplify_just_coalesce="false"
       simplify_individual_paths="false"
       helper_size="0"
       smooth_angles="360"
       threshold="0.000851064"
       steps="1"
       lpeversion="1"
       is_visible="true"
       id="path-effect1669"
       effect="simplify" />
    <inkscape:path-effect
       simplify_just_coalesce="false"
       simplify_individual_paths="false"
       helper_size="0"
       smooth_angles="360"
       threshold="0.000851064"
       steps="1"
       lpeversion="1"
       is_visible="true"
       id="path-effect1628"
       effect="simplify" />
  </defs>
  <sodipodi:namedview
     id="base"
     pagecolor="#ffffff"
     bordercolor="#666666"
     borderopacity="1.0"
     inkscape:pageopacity="0.0"
     inkscape:pageshadow="2"
     inkscape:zoom="5.6"
     inkscape:cx="96.785714"
     inkscape:cy="56.25"
     inkscape:document-units="px"
     inkscape:current-layer="layer4"
     inkscape:document-rotation="0"
     showgrid="false"
     inkscape:snap-global="false"
     inkscape:window-width="1920"
     inkscape:window-height="1094"
     inkscape:window-x="-11"
     inkscape:window-y="-11"
     inkscape:window-maximized="1"
     inkscape:showpageshadow="2"
     inkscape:pagecheckerboard="0"
     inkscape:deskcolor="#d1d1d1"
     showguides="true">
    <inkscape:grid
       type="xygrid"
       id="grid884"
       originx="-1.0970138e-06"
       originy="-3.499888e-06" />
    <sodipodi:guide
       id="guide1093"
       orientation="1084.7244,0"
       position="-199.42881,902.75182"
       inkscape:locked="false" />
    <sodipodi:guide
       id="guide1095"
       orientation="0,755.90551"
       position="-199.42881,-181.97259"
       inkscape:locked="false" />
    <sodipodi:guide
       id="guide1097"
       orientation="-1084.7244,0"
       position="556.47669,-181.97259"
       inkscape:locked="false" />
    <sodipodi:guide
       id="guide1099"
       orientation="0,-755.90551"
       position="556.47669,902.75182"
       inkscape:locked="false" />
    <sodipodi:guide
       id="guide2864"
       orientation="93.944202,0"
       position="178.52395,455.22004"
       inkscape:locked="false" />
    <sodipodi:guide
       position="76.519055,72"
       orientation="0,1"
       id="guide318"
       inkscape:locked="false"
       inkscape:label=""
       inkscape:color="rgb(0,134,229)" />
    <sodipodi:guide
       position="94.7018,103.6"
       orientation="0,1"
       id="guide320"
       inkscape:locked="false"
       inkscape:label=""
       inkscape:color="rgb(0,134,229)" />
    <sodipodi:guide
       position="74.751288,24.4"
       orientation="0,1"
       id="guide322"
       inkscape:locked="false"
       inkscape:label=""
       inkscape:color="rgb(0,134,229)" />
  </sodipodi:namedview>
  <metadata
     id="metadata5">
    <rdf:RDF>
      <cc:Work
         rdf:about="">
        <dc:format>image/svg+xml</dc:format>
        <dc:type
           rdf:resource="http://purl.org/dc/dcmitype/StillImage" />
      </cc:Work>
    </rdf:RDF>
  </metadata>
  <g
     style="display:inline"
     inkscape:groupmode="layer"
     id="layer4"
     inkscape:label="歯"
     transform="translate(-57.76554,-211.10308)">
    <path
       id="path1662"
       style="fill:#ffffff;stroke:#000000;stroke-width:0.934867;stroke-linecap:round;stroke-linejoin:round;stroke-dasharray:none;stroke-opacity:1"
       d="m 64.913866,231.72855 c -1.799333,-2.38479 -4.413334,-0.66397 -5.797765,0.80843 -1.714311,1.96569 -0.49902,11.18475 0.697786,16.58802 0.821353,3.7082 3.023247,8.1336 4.373161,10.52159 -0.203203,5.55916 -0.832981,14.06139 -2.706355,21.80647 -2.321484,7.64877 -3.469497,10.55503 -2.592398,16.96186 0.364237,6.43085 8.466476,14.11584 6.151815,-1.04585 0.328539,-4.25095 3.781244,-11.50931 8.712467,-18.05593 4.634657,-8.70929 10.343919,-7.02717 10.543564,2.73558 0.591578,5.03139 0.856301,11.44274 -0.09416,16.37539 -1.363713,3.10224 -3.120918,14.56155 7.015377,2.12359 3.72335,-7.49068 3.613053,-9.07784 4.350785,-15.33191 0.08319,-7.43997 -1.687733,-18.81347 1.017211,-25.09484 1.417506,-3.47423 2.96524,-7.85446 4.286146,-11.83777 3.34796,-10.09605 2.5851,-14.96846 -3.479198,-18.23193 -4.443688,-3.05107 -6.113367,-2.18661 -11.620887,0.21587 -2.657608,1.91081 -3.074457,2.23005 -8.669164,-0.27186 -4.095077,-1.54902 -3.271771,-2.33107 -12.188388,1.73329 z"
       sodipodi:nodetypes="ccaccccccccccsccccc" />
    <path
       style="fill:#ffffff;stroke:#000000;stroke-width:0.934867;stroke-linecap:round;stroke-linejoin:miter;stroke-dasharray:none;stroke-opacity:1"
       d="m 63.211162,238.07273 c -0.383878,-0.54204 -0.574578,-1.21296 -0.540057,-1.87659 0.04508,-0.86658 0.40086,-1.68113 0.823148,-2.42631 0.371427,-0.65543 0.810746,-1.26842 1.235266,-1.88969"
       id="path1667"
       inkscape:path-effect="#path-effect1669"
       inkscape:original-d="m 63.211162,238.07273 c -1.482329,-2.14027 0.417078,-4.57271 1.518357,-6.19259"
       sodipodi:nodetypes="cc" />
    <path
       style="fill:#ffffff;stroke:#000000;stroke-width:0.934867;stroke-linecap:round;stroke-linejoin:miter;stroke-dasharray:none;stroke-opacity:1"
       d="m 82.16253,232.00916 c 0.331938,1.79018 0.344265,3.61807 0.369337,5.43267 0.01658,1.19985 0.01105,2.40336 0.136802,3.59817"
       id="path1671"
       inkscape:path-effect="#path-effect1673"
       inkscape:original-d="m 82.16253,232.00916 c 0.555442,2.9253 0.236599,6.58307 0.506139,9.03084"
       sodipodi:nodetypes="cc" />
    <path
       style="fill:#ffffff;stroke:#000000;stroke-width:0.934867;stroke-linecap:round;stroke-linejoin:miter;stroke-dasharray:none;stroke-opacity:1"
       d="m 81.375225,245.68442 c 0.191983,0.0356 0.364684,-0.0962 0.488308,-0.22682 0.273022,-0.28843 0.461655,-0.6432 0.641622,-0.99401 0.09848,-0.19197 0.06435,-0.62491 0.275966,-0.58533 0.136342,0.0255 0.256447,0.10347 0.374975,0.17184 0.484713,0.27959 0.930222,0.62728 1.431924,0.87531 0.205873,0.10178 0.429101,0.16225 0.647877,0.22959 0.352582,0.10852 0.709833,0.21622 1.031823,0.40045"
       id="path1675"
       inkscape:path-effect="#path-effect1677"
       inkscape:original-d="m 81.375225,245.68442 c 0.645668,0.1313 1.379199,-1.80616 1.405896,-1.80616 0.214279,0 1.58932,0.97325 1.912001,1.09663 0.507045,0.19385 1.09023,0.30275 1.574598,0.58056" />
    <path
       id="path1679"
       style="fill:#ffffff;stroke:#000000;stroke-width:0.934867;stroke-linecap:round;stroke-linejoin:round;stroke-dasharray:none;stroke-opacity:1"
       d="m 64.110932,259.53159 c 0.702447,-1.37215 13.035582,-1.2585 16.521838,0.83651 3.831974,-2.5432 15.49608,-1.59914 16.180584,-1.39679"
       sodipodi:nodetypes="ccc" />
  </g>
</svg>
