<?xml version="1.0" encoding="UTF-8" standalone="no"?>
<svg
   width="45.599998"
   height="120"
   viewBox="0 0 45.6 120"
   version="1.1"
   id="svg8"
   inkscape:version="1.2 (dc2aedaf03, 2022-05-15)"
   sodipodi:docname="mandibular_l_6.svg"
   xmlns:inkscape="http://www.inkscape.org/namespaces/inkscape"
   xmlns:sodipodi="http://sodipodi.sourceforge.net/DTD/sodipodi-0.dtd"
   xmlns="http://www.w3.org/2000/svg"
   xmlns:svg="http://www.w3.org/2000/svg"
   xmlns:rdf="http://www.w3.org/1999/02/22-rdf-syntax-ns#"
   xmlns:cc="http://creativecommons.org/ns#"
   xmlns:dc="http://purl.org/dc/elements/1.1/">
  <defs
     id="defs2">
    <inkscape:path-effect
       simplify_just_coalesce="false"
       simplify_individual_paths="false"
       helper_size="0"
       smooth_angles="360"
       threshold="0.000851064"
       steps="1"
       lpeversion="1"
       is_visible="true"
       id="path-effect1878"
       effect="simplify" />
    <inkscape:path-effect
       simplify_just_coalesce="false"
       simplify_individual_paths="false"
       helper_size="0"
       smooth_angles="360"
       threshold="0.000851064"
       steps="1"
       lpeversion="1"
       is_visible="true"
       id="path-effect1874"
       effect="simplify" />
  </defs>
  <sodipodi:namedview
     id="base"
     pagecolor="#ffffff"
     bordercolor="#666666"
     borderopacity="1.0"
     inkscape:pageopacity="0.0"
     inkscape:pageshadow="2"
     inkscape:zoom="15.839192"
     inkscape:cx="29.862634"
     inkscape:cy="91.923881"
     inkscape:document-units="px"
     inkscape:current-layer="layer4"
     inkscape:document-rotation="0"
     showgrid="false"
     inkscape:snap-global="false"
     inkscape:window-width="1920"
     inkscape:window-height="1094"
     inkscape:window-x="-11"
     inkscape:window-y="-11"
     inkscape:window-maximized="1"
     inkscape:showpageshadow="2"
     inkscape:pagecheckerboard="0"
     inkscape:deskcolor="#d1d1d1"
     showguides="true">
    <inkscape:grid
       type="xygrid"
       id="grid884"
       originx="-1.1495625e-06"
       originy="8.7953952e-06" />
    <sodipodi:guide
       id="guide1095"
       orientation="0,755.90551"
       position="-200.93468,-363.65446"
       inkscape:locked="false" />
    <sodipodi:guide
       id="guide1097"
       orientation="-1084.7244,0"
       position="554.97086,-363.65446"
       inkscape:locked="false" />
    <sodipodi:guide
       id="guide1099"
       orientation="0,-755.90551"
       position="554.97086,721.06995"
       inkscape:locked="false" />
    <sodipodi:guide
       position="-38.890874,72.000001"
       orientation="0,1"
       id="guide801"
       inkscape:locked="false"
       inkscape:label=""
       inkscape:color="rgb(0,134,229)" />
    <sodipodi:guide
       position="-25.253814,24.4"
       orientation="0,1"
       id="guide1529"
       inkscape:locked="false"
       inkscape:label=""
       inkscape:color="rgb(0,134,229)" />
    <sodipodi:guide
       position="-31.819806,103.6"
       orientation="0,1"
       id="guide2257"
       inkscape:locked="false"
       inkscape:label=""
       inkscape:color="rgb(0,134,229)" />
  </sodipodi:namedview>
  <metadata
     id="metadata5">
    <rdf:RDF>
      <cc:Work
         rdf:about="">
        <dc:format>image/svg+xml</dc:format>
        <dc:type
           rdf:resource="http://purl.org/dc/dcmitype/StillImage" />
      </cc:Work>
    </rdf:RDF>
  </metadata>
  <g
     style="display:inline"
     inkscape:groupmode="layer"
     id="layer4"
     inkscape:label="歯"
     transform="translate(-58.163966,-163.03308)">
    <g
       style="fill:#ffffff;stroke-width:0.249516;stroke-dasharray:none"
       id="g1883"
       transform="matrix(3.5117449,0,0,4.0111045,-169.64402,-709.90658)">
      <path
         sodipodi:nodetypes="cccccccccccccccc"
         d="m 65.015411,224.59974 c 0.175381,1.25032 1.898519,3.43507 2.388351,4.84361 0.197663,1.33951 -0.03927,2.12555 -0.396731,4.03077 -0.347425,2.39857 -1.812471,3.82579 -1.186315,6.2839 0.165757,1.41162 1.643638,2.35274 1.677271,0.28062 0.854531,-2.37183 2.063903,-3.72912 3.173379,-5.88982 0.744301,-1.47666 2.01372,-1.33436 2.109789,0.13993 0.964038,3.07568 0.400133,3.47658 -0.02943,5.31636 -0.815132,2.52562 1.487986,2.03125 2.284815,0.37711 1.639031,-3.29701 0.586614,-6.49609 1.404965,-10.06205 0.373548,-0.68616 0.577039,-1.6717 0.952307,-2.88165 0.202319,-1.1659 0.767156,-3.40356 -0.276415,-4.15987 -1.18265,-0.86248 -2.584339,-1.35566 -3.062626,-1.02426 -0.964527,0.31014 -1.825106,1.0096 -2.860755,1.06553 -3.371975,-0.96251 -2.094903,-1.34053 -4.252617,-0.7873 -1.786017,0.38829 -1.997525,1.35081 -1.925988,2.46712 z"
         style="fill:#ffffff;stroke:#000000;stroke-width:0.249516;stroke-linecap:butt;stroke-linejoin:miter;stroke-dasharray:none;stroke-opacity:1"
         id="path1866" />
      <path
         inkscape:original-d="m 71.177215,223.00656 c 0.02619,0.25569 -0.05011,0.50278 -0.05011,0.75169"
         inkscape:path-effect="#path-effect1874"
         id="path1872"
         d="m 71.177215,223.00656 c 0.01283,0.12418 9.76e-4,0.24917 -0.0145,0.37254 -0.01579,0.12592 -0.03558,0.25192 -0.03561,0.37915"
         style="fill:#ffffff;stroke:#000000;stroke-width:0.249516;stroke-linecap:round;stroke-linejoin:miter;stroke-dasharray:none;stroke-opacity:1"
         sodipodi:nodetypes="cc" />
      <path
         sodipodi:nodetypes="ccc"
         inkscape:original-d="m 67.452146,229.56115 c 1.678735,-0.14251 3.364611,-0.0132 4.359835,0.41761 1.515426,-0.55474 3.800303,-0.42405 4.753125,-0.31032"
         inkscape:path-effect="#path-effect1878"
         id="path1876"
         d="m 67.452146,229.56115 c 0.868482,-0.0723 1.744826,-0.0844 2.611749,0.0112 0.522188,0.0575 1.029227,0.19938 1.540886,0.32461 0.07607,0.0186 0.154578,0.10051 0.224994,0.0754 0.570516,-0.20359 1.172888,-0.30287 1.774496,-0.35498 0.8165,-0.0707 1.638837,-0.0633 2.455354,0.002 0.168772,0.0134 0.337356,0.0295 0.505481,0.0495"
         style="fill:#ffffff;stroke:#000000;stroke-width:0.249516;stroke-linecap:round;stroke-linejoin:round;stroke-dasharray:none;stroke-opacity:1" />
    </g>
  </g>
</svg>
