<?xml version="1.0" encoding="UTF-8" standalone="no"?>
<svg
   width="42.400002"
   height="120"
   viewBox="0 0 42.400002 120"
   version="1.1"
   id="svg8"
   inkscape:version="1.2 (dc2aedaf03, 2022-05-15)"
   sodipodi:docname="maxilla_b_6.svg"
   xmlns:inkscape="http://www.inkscape.org/namespaces/inkscape"
   xmlns:sodipodi="http://sodipodi.sourceforge.net/DTD/sodipodi-0.dtd"
   xmlns="http://www.w3.org/2000/svg"
   xmlns:svg="http://www.w3.org/2000/svg"
   xmlns:rdf="http://www.w3.org/1999/02/22-rdf-syntax-ns#"
   xmlns:cc="http://creativecommons.org/ns#"
   xmlns:dc="http://purl.org/dc/elements/1.1/">
  <defs
     id="defs2">
    <inkscape:path-effect
       simplify_just_coalesce="false"
       simplify_individual_paths="false"
       helper_size="0"
       smooth_angles="360"
       threshold="0.000851064"
       steps="1"
       lpeversion="1"
       is_visible="true"
       id="path-effect1533"
       effect="simplify" />
    <inkscape:path-effect
       simplify_just_coalesce="false"
       simplify_individual_paths="false"
       helper_size="0"
       smooth_angles="360"
       threshold="0.000851064"
       steps="1"
       lpeversion="1"
       is_visible="true"
       id="path-effect1528"
       effect="simplify" />
  </defs>
  <sodipodi:namedview
     id="base"
     pagecolor="#ffffff"
     bordercolor="#666666"
     borderopacity="1.0"
     inkscape:pageopacity="0.0"
     inkscape:pageshadow="2"
     inkscape:zoom="11.2"
     inkscape:cx="2.2321429"
     inkscape:cy="41.964286"
     inkscape:document-units="px"
     inkscape:current-layer="layer4"
     inkscape:document-rotation="0"
     showgrid="false"
     inkscape:snap-global="false"
     inkscape:window-width="1920"
     inkscape:window-height="1094"
     inkscape:window-x="-11"
     inkscape:window-y="-11"
     inkscape:window-maximized="1"
     inkscape:showpageshadow="2"
     inkscape:pagecheckerboard="0"
     inkscape:deskcolor="#d1d1d1"
     showguides="true">
    <inkscape:grid
       type="xygrid"
       id="grid884"
       originx="-1.1976078e-06"
       originy="3.4029138e-06" />
    <sodipodi:guide
       id="guide1093"
       orientation="1084.7244,0"
       position="-188.31871,196.63858"
       inkscape:locked="false" />
    <sodipodi:guide
       id="guide1095"
       orientation="0,755.90551"
       position="-188.31871,-888.08584"
       inkscape:locked="false" />
    <sodipodi:guide
       id="guide1097"
       orientation="-1084.7244,0"
       position="567.58682,-888.08584"
       inkscape:locked="false" />
    <sodipodi:guide
       id="guide1099"
       orientation="0,-755.90551"
       position="567.58682,196.63858"
       inkscape:locked="false" />
    <sodipodi:guide
       id="guide2864"
       orientation="93.944202,0"
       position="189.63405,-250.89316"
       inkscape:locked="false" />
    <sodipodi:guide
       position="-9.107143,48"
       orientation="0,1"
       id="guide698"
       inkscape:locked="false"
       inkscape:label=""
       inkscape:color="rgb(0,134,229)" />
    <sodipodi:guide
       position="-11.964286,19.2"
       orientation="0,1"
       id="guide1476"
       inkscape:locked="false"
       inkscape:label=""
       inkscape:color="rgb(0,134,229)" />
    <sodipodi:guide
       position="-7.0535716,96.000001"
       orientation="0,1"
       id="guide2204"
       inkscape:locked="false"
       inkscape:label=""
       inkscape:color="rgb(0,134,229)" />
  </sodipodi:namedview>
  <metadata
     id="metadata5">
    <rdf:RDF>
      <cc:Work
         rdf:about="">
        <dc:format>image/svg+xml</dc:format>
        <dc:type
           rdf:resource="http://purl.org/dc/dcmitype/StillImage" />
      </cc:Work>
    </rdf:RDF>
  </metadata>
  <g
     style="display:inline"
     inkscape:groupmode="layer"
     id="layer4"
     inkscape:label="歯"
     transform="translate(-54.82599,-24.277291)">
    <g
       id="g1545"
       style="fill:#ffffff;stroke-width:0.254282;stroke-dasharray:none"
       transform="matrix(3.4671235,0,0,3.9355923,-149.92904,-235.87096)">
      <path
         id="path1520"
         style="fill:#ffffff;stroke:#000000;stroke-width:0.254282;stroke-linecap:butt;stroke-linejoin:miter;stroke-dasharray:none;stroke-opacity:1"
         d="m 66.082391,73.262919 c -0.491701,-1.499613 -1.183641,-2.910115 -2.049937,0.269606 -0.162887,0.597874 -0.490312,2.22995 -0.933786,2.676553 -0.104801,-0.424451 -0.490471,-0.829648 -0.506637,-1.532893 0.201562,-4.702421 -2.498711,-0.954699 -2.231745,1.456155 0.13294,0.677469 0.814207,4.048951 1.013249,5.257127 0.128063,0.77734 -0.122749,1.971288 -0.623143,3.016563 -0.417473,0.911453 -0.846609,1.87065 -1.558687,3.807927 -0.01506,1.292792 1.944536,2.525923 2.512712,2.874713 0.961906,0.426363 3.346464,-0.731166 3.797004,-1.123557 0.297232,0.578856 2.246637,1.662661 2.756776,1.580152 1.624555,-0.767077 2.993158,-0.949118 2.87809,-2.676291 -0.103414,-1.442653 -1.140749,-2.860893 -1.577311,-4.015218 -0.467476,-1.055555 -0.469183,-1.951557 -0.151868,-3.099601 0.756332,-2.73641 1.05281,-4.964291 -6.9e-5,-7.614858 -0.805333,-1.358815 -2.00994,-2.104704 -2.283421,-0.01739 -0.02895,0.541448 0.06527,0.975367 0.111632,1.691225 -0.538687,-0.872679 -0.845255,-1.612071 -1.152859,-2.550214 z"
         sodipodi:nodetypes="cccccscccccccsccccc" />
      <path
         style="fill:#ffffff;stroke:#000000;stroke-width:0.254282;stroke-linecap:round;stroke-linejoin:miter;stroke-dasharray:none;stroke-opacity:1"
         d="m 60.770407,84.356944 c 0.288929,0.0626 0.583741,0.09351 0.877973,0.117578 0.659742,0.05397 1.32338,0.0774 1.984451,0.0396 0.37487,-0.02143 0.753592,-0.04821 1.116376,-0.149028 0.156293,-0.04343 0.29389,-0.261602 0.444986,-0.197088 0.412086,0.175951 0.859754,0.250361 1.304073,0.283452 0.797074,0.05936 1.595162,-0.02078 2.38858,-0.09748 0.12289,-0.01188 0.245775,-0.02862 0.36937,-0.03044"
         id="path1526"
         inkscape:path-effect="#path-effect1528"
         inkscape:original-d="m 60.770407,84.356944 c 0.793552,0.182525 3.768786,0.342432 4.423786,-0.188942 1.347837,0.583003 3.671406,0.151679 4.062023,0.155532"
         sodipodi:nodetypes="ccc" />
      <path
         style="fill:#ffffff;stroke:#000000;stroke-width:0.254282;stroke-linecap:round;stroke-linejoin:miter;stroke-dasharray:none;stroke-opacity:1"
         d="m 65.481032,89.857876 c 0.02228,-0.155906 0.04455,-0.311814 0.06682,-0.467722"
         id="path1530"
         inkscape:path-effect="#path-effect1533"
         inkscape:original-d="m 65.481032,89.857876 c 0.02228,-0.155908 0.04455,-0.311814 0.06682,-0.467722"
         sodipodi:nodetypes="cc" />
      <path
         id="path1535"
         style="fill:#ffffff;stroke:#000000;stroke-width:0.254282;stroke-linecap:butt;stroke-linejoin:miter;stroke-dasharray:none;stroke-opacity:1"
         d="m 63.109016,76.146788 c 0.05612,1.10499 0.933833,2.175722 1.143601,2.809749 0.638675,2.065288 1.72623,3.733227 2.973164,-0.123226 0.420841,-1.74258 0.274601,-2.141875 -0.0075,-3.120834"
         sodipodi:nodetypes="cccc" />
    </g>
  </g>
</svg>
